<?xml version="1.0" encoding="UTF-8"?>
<svg id="Simplon.co_B" data-name="Simplon.co B" xmlns="http://www.w3.org/2000/svg" viewBox="0 0 551.9 246.82">
  <defs>
    <style>
      .cls-1 {
        fill: none;
      }

      .cls-1, .cls-2 {
        stroke-width: 0px;
      }

      .cls-2 {
        fill: #fff;
      }
    </style>
  </defs>
  <g>
    <path class="cls-2" d="M411.14,58.07c8.81,8.83,13.22,19.35,13.22,31.54s-4.41,22.82-13.22,31.63-19.58,13.22-32.3,13.22-23.43-4.41-32.24-13.22-13.22-19.36-13.22-31.63,4.41-22.71,13.22-31.54c8.81-8.83,19.56-13.25,32.24-13.25s23.49,4.42,32.3,13.25ZM378.83,54.43c-9.32,0-17.38,3.41-24.19,10.24-6.81,6.83-10.21,15.14-10.21,24.95s3.4,18.23,10.21,25.04,14.87,10.21,24.19,10.21,17.44-3.4,24.25-10.21,10.21-15.15,10.21-25.04-3.4-18.12-10.21-24.95c-6.81-6.83-14.89-10.24-24.25-10.24Z"/>
    <path class="cls-2" d="M384.91,72.23h-13.35v13.35h13.35v-13.35ZM384.91,96.05h-13.35v13.35h13.35v-13.35Z"/>
  </g>
  <g>
    <path class="cls-2" d="M73.21,87.49c-6.28-2.07-11.33-5-15.13-8.81s-5.71-8.41-5.71-13.8,1.97-9.9,5.93-13.89,8.86-5.99,14.74-5.99,10.76,2.05,14.89,6.14c2.15,2.11,3.83,5.07,5.04,8.87l-9.85,3.83c-1.22-3.28-2.31-5.41-3.28-6.38-1.99-2.03-4.25-3.04-6.81-3.04s-4.75.98-6.72,2.95-2.95,4.47-2.95,7.51,1.01,5.55,3.04,7.66c2.11,2.03,4.98,3.89,8.63,5.59,6.97,2.27,12.8,5.75,17.5,10.45,5.39,5.35,8.08,11.67,8.08,18.96s-2.67,13.6-7.99,18.93c-5.33,5.33-11.86,7.99-19.6,7.99s-14.36-2.74-19.75-8.21c-4.21-4.17-6.81-9.58-7.78-16.23l10.58-3.83c.65,6.36,2.45,11,5.41,13.92,3.24,3.24,7.09,4.86,11.55,4.86s8.42-1.67,11.76-5.01,5.01-7.49,5.01-12.43-1.64-9.06-4.92-12.34c-3.32-3.28-7.21-5.85-11.67-7.72Z"/>
    <path class="cls-2" d="M121.84,46.04v87.46h-11V46.04h11Z"/>
    <path class="cls-2" d="M214.83,46.04v87.46h-11V62.39l-28.75,37.74-28.81-37.74v71.11h-11V46.04h11.73l28.08,36.77,28.02-36.77h11.73Z"/>
    <path class="cls-2" d="M292.1,133.5V46.04h11v77.92h31.42v9.54h-42.42Z"/>
    <path class="cls-2" d="M445.56,46.04l49.84,69.9V46.04h11v87.46h-12.16l-48.56-68.13v68.13h-11V46.04h10.88Z"/>
    <path class="cls-2" d="M273.53,55.55c-5.27-5.31-11.81-8.49-19.65-9.53h-26.08v87.46h11v-24.27h11.62c9.09,0,16.75-3.13,22.98-9.4,6.22-6.27,9.33-13.69,9.33-22.26s-3.07-15.86-9.2-22ZM265.29,92.79c-4.17,4.07-9.05,6.1-14.64,6.1h-11.85v-42.57h11.85c5.59,0,10.47,2.02,14.64,6.07,4.17,4.05,6.26,9.1,6.26,15.15s-2.09,11.18-6.26,15.25Z"/>
  </g>
  <g>
    <polygon class="cls-2" points="124.29 184.16 112.82 184.16 112.82 170.64 108 170.64 108 202 112.82 202 112.82 188.48 124.29 188.48 124.29 202 129.1 202 129.1 170.64 124.29 170.64 124.29 184.16"/>
    <path class="cls-2" d="M141.35,170.64l-11.5,31.35h5.05l4.66-12.61h7.55l4.58,12.61h5.03l-11.35-31.35h-4.01ZM145.55,185.09h-4.42l2.22-6.09,2.2,6.09Z"/>
    <path class="cls-2" d="M174.99,191.54c0,1.82-.6,3.31-1.83,4.55-1.23,1.24-2.63,1.84-4.27,1.84s-3.07-.6-4.31-1.85c-1.24-1.24-1.84-2.73-1.84-4.55v-20.9h-4.82v20.9c0,2.9,1.06,5.43,3.16,7.54,2.1,2.11,4.72,3.17,7.8,3.17s5.65-1.06,7.72-3.14c1.79-1.79,2.86-3.95,3.2-6.49v-21.97h-4.82v20.9Z"/>
    <polygon class="cls-2" points="181.85 174.96 189.1 174.96 189.1 202 193.9 202 193.9 174.96 201.14 174.96 201.14 170.64 181.85 170.64 181.85 174.96"/>
    <path class="cls-2" d="M212.93,181.83c-1.21-.56-2.17-1.19-2.85-1.83-.62-.64-.92-1.4-.92-2.31s.29-1.66.88-2.25c.59-.59,1.24-.88,1.98-.88s1.41.3,2.01.91c.2.2.53.71,1.02,2.03l.18.48,4.33-1.68-.14-.45c-.44-1.39-1.08-2.5-1.88-3.28-1.52-1.51-3.38-2.27-5.52-2.27s-4.01.75-5.47,2.23c-1.46,1.48-2.2,3.22-2.2,5.17s.72,3.73,2.13,5.14c1.37,1.37,3.19,2.44,5.43,3.17,1.47.62,2.78,1.48,3.87,2.56,1.05,1.05,1.56,2.34,1.56,3.93s-.52,2.89-1.59,3.96c-1.07,1.07-2.29,1.59-3.73,1.59s-2.62-.5-3.66-1.54c-.94-.92-1.52-2.45-1.73-4.52l-.06-.64-4.66,1.69.06.4c.35,2.41,1.31,4.4,2.84,5.91,1.96,1.99,4.39,3,7.21,3s5.22-.98,7.16-2.92c1.94-1.94,2.92-4.27,2.92-6.92s-.99-4.99-2.95-6.93c-1.68-1.68-3.79-2.94-6.22-3.73Z"/>
    <rect class="cls-2" x="223.28" y="187.9" width="13.32" height="4.31"/>
    <path class="cls-2" d="M245.88,170.64h-6.91v31.35h6.91c5.18-.03,9.24-1.48,12.08-4.32,3.15-3.16,4.74-6.98,4.74-11.36s-1.57-8.12-4.66-11.24c-2.9-2.91-6.99-4.4-12.16-4.43ZM243.79,175.02h2.07c3.62,0,6.49.99,8.52,2.93,2.27,2.3,3.42,5.11,3.42,8.36s-1.15,6.09-3.41,8.35c-2.05,1.98-4.92,2.98-8.53,2.98h-2.07v-22.62Z"/>
    <polygon class="cls-2" points="265.38 202 282.89 202 282.89 197.69 270.19 197.69 270.19 188.48 282.89 188.48 282.89 184.16 270.19 184.16 270.19 174.96 282.89 174.96 282.89 170.64 265.38 170.64 265.38 202"/>
    <rect class="cls-2" x="285.27" y="187.9" width="13.32" height="4.31"/>
    <polygon class="cls-2" points="300.96 202 305.78 202 305.78 188.48 316.68 188.48 316.68 184.16 305.78 184.16 305.78 174.96 316.68 174.96 316.68 170.64 300.96 170.64 300.96 202"/>
    <path class="cls-2" d="M350,170.64l-11.42,31.11-6.81-10.52c.96-.4,2.01-1.17,3.17-2.34,2.13-2.13,3.21-4.67,3.21-7.57s-1.05-5.39-3.12-7.46c-1.77-1.79-4.01-2.87-6.7-3.23h-9.19v31.35h4.82v-9.93h2.79l6.39,9.93h10.41l4.66-12.61h7.55l4.58,12.61h5.03l-11.35-31.35h-4.01ZM323.96,174.98h3.25c1.65,0,3.05.59,4.29,1.82,1.23,1.22,1.83,2.71,1.83,4.54s-.6,3.34-1.83,4.57c-1.24,1.23-2.64,1.83-4.29,1.83h-3.25v-12.75ZM354.2,185.09h-4.42l2.22-6.09,2.2,6.09Z"/>
    <polygon class="cls-2" points="387.59 193.84 371.05 170.64 366.52 170.64 366.52 202 371.33 202 371.33 179.41 387.43 202 392.4 202 392.4 170.64 387.59 170.64 387.59 193.84"/>
    <path class="cls-2" d="M419.82,194.44c-2.68,2.37-5.47,3.57-8.3,3.57-3.08,0-5.78-1.14-8.03-3.38-2.25-2.24-3.39-5.04-3.39-8.31s1.14-6.04,3.39-8.28c2.25-2.25,4.95-3.39,8.03-3.39,2.83,0,5.62,1.2,8.3,3.57l.33.29,3.4-3.03-.41-.37c-3.5-3.19-7.41-4.81-11.62-4.81-4.53,0-8.42,1.6-11.54,4.75-3.13,3.15-4.71,6.94-4.71,11.28s1.59,8.18,4.71,11.31c3.13,3.13,7.01,4.71,11.54,4.71,4.22,0,8.12-1.61,11.62-4.79l.41-.37-3.4-3.03-.33.29Z"/>
    <polygon class="cls-2" points="443.51 174.96 443.51 170.64 426 170.64 426 202 443.51 202 443.51 197.69 430.82 197.69 430.82 188.48 443.51 188.48 443.51 184.16 430.82 184.16 430.82 174.96 443.51 174.96"/>
  </g>
  <rect class="cls-1" width="551.9" height="246.82"/>
</svg>